<svg width="27" height="27" viewBox="0 0 27 27" fill="none" xmlns="http://www.w3.org/2000/svg">
<path d="M21.6562 13.5C21.6563 11.9774 21.2301 10.4851 20.4259 9.19217C19.6217 7.89922 18.4716 6.8572 17.1059 6.18404C15.7401 5.51088 14.2132 5.23346 12.6979 5.38319C11.1827 5.53292 9.73958 6.10382 8.53199 7.03126H9.28124C9.5796 7.03126 9.86575 7.14979 10.0767 7.36077C10.2877 7.57175 10.4062 7.85789 10.4062 8.15626C10.4062 8.45463 10.2877 8.74078 10.0767 8.95176C9.86575 9.16274 9.5796 9.28126 9.28124 9.28126H5.90624C5.60787 9.28126 5.32172 9.16274 5.11074 8.95176C4.89976 8.74078 4.78124 8.45463 4.78124 8.15626V7.87501H4.74299L4.78124 7.81651V4.78126C4.78124 4.48289 4.89976 4.19675 5.11074 3.98577C5.32172 3.77479 5.60787 3.65626 5.90624 3.65626C6.2046 3.65626 6.49075 3.77479 6.70173 3.98577C6.91271 4.19675 7.03124 4.48289 7.03124 4.78126V5.34826C8.86951 3.88508 11.1505 3.09011 13.5 3.09376C15.6124 3.09406 17.6747 3.73722 19.4128 4.93776C21.1508 6.13831 22.4824 7.83939 23.2304 9.8149C23.9785 11.7904 24.1076 13.9468 23.6007 15.9975C23.0937 18.0481 21.9746 19.896 20.3922 21.2953C18.8098 22.6947 16.839 23.5794 14.7418 23.8317C12.6445 24.0841 10.5201 23.6922 8.65089 22.7082C6.78169 21.7241 5.25623 20.1945 4.27726 18.3227C3.2983 16.4508 2.91218 14.3253 3.17024 12.2288C3.24111 11.6528 3.75074 11.25 4.33124 11.25C4.99499 11.25 5.47536 11.8901 5.39886 12.5505C5.26992 13.6539 5.36775 14.772 5.68634 15.8363C6.00493 16.9005 6.53757 17.8884 7.25159 18.7395C7.96561 19.5906 8.84595 20.2868 9.83864 20.7855C10.8313 21.2841 11.9154 21.5748 13.0244 21.6396C14.1335 21.7043 15.244 21.5419 16.288 21.1621C17.332 20.7824 18.2874 20.1934 19.0956 19.4312C19.9039 18.6691 20.5479 17.7499 20.9882 16.73C21.4285 15.71 21.6558 14.6109 21.6562 13.5ZM14.625 9.00001C14.625 8.70164 14.5065 8.4155 14.2955 8.20452C14.0845 7.99354 13.7984 7.87501 13.5 7.87501C13.2016 7.87501 12.9155 7.99354 12.7045 8.20452C12.4935 8.4155 12.375 8.70164 12.375 9.00001V14.625C12.375 14.9234 12.4935 15.2095 12.7045 15.4205C12.9155 15.6315 13.2016 15.75 13.5 15.75H16.875C17.1734 15.75 17.4595 15.6315 17.6705 15.4205C17.8815 15.2095 18 14.9234 18 14.625C18 14.3266 17.8815 14.0405 17.6705 13.8295C17.4595 13.6185 17.1734 13.5 16.875 13.5H14.625V9.00001Z" fill="#C4C4C4"/>
</svg>
