<svg width="24" height="25" viewBox="0 0 24 25" fill="none" xmlns="http://www.w3.org/2000/svg">
<path d="M22 20.5V12.674C22.0001 12.1295 21.889 11.5908 21.6735 11.0907C21.458 10.5907 21.1428 10.1399 20.747 9.766L13.374 2.798C13.0027 2.44692 12.511 2.25131 12 2.25131C11.489 2.25131 10.9973 2.44692 10.626 2.798L3.253 9.766C2.85722 10.1399 2.54195 10.5907 2.3265 11.0907C2.11104 11.5908 1.99994 12.1295 2 12.674V20.5C2 21.0304 2.21071 21.5391 2.58579 21.9142C2.96086 22.2893 3.46957 22.5 4 22.5H20C20.5304 22.5 21.0391 22.2893 21.4142 21.9142C21.7893 21.5391 22 21.0304 22 20.5Z" fill="#44DB87" stroke="#44DB87" stroke-linecap="round" stroke-linejoin="round"/>
</svg>
